<svg xmlns="http://www.w3.org/2000/svg" viewBox="0.01 0.01 207.18 167.01">
  <g id="AdobeStock_438551483_Converted_" data-name="AdobeStock_438551483 [Converted]" transform="translate(-547.32 -59.211)">
    <g id="Group_370" data-name="Group 370" transform="translate(549.323 61.219)">
      <path id="Path_37" data-name="Path 37" d="M466.718,1321.009,453.4,1336.483a7.451,7.451,0,0,1-5.653,2.592H436.13a7.459,7.459,0,0,1-5.656-2.592l-13.319-15.474a5.593,5.593,0,0,0-8.479,7.3l18.036,20.956v46.223a5.595,5.595,0,0,0,11.189,0v-22.352a1.5,1.5,0,0,1,1.5-1.5h5.065a1.5,1.5,0,0,1,1.5,1.5v22.352a5.594,5.594,0,0,0,11.189,0v-46.223l18.038-20.956a5.593,5.593,0,0,0-8.478-7.3Z" transform="translate(-407.323 -1238.126)" fill="none" stroke="#accfcb" stroke-width="5"/>
      <path id="Path_38" data-name="Path 38" d="M651.418,1210a13.625,13.625,0,1,0-13.628-13.628A13.627,13.627,0,0,0,651.418,1210Z" transform="translate(-616.805 -1114.227)" fill="none" stroke="#accfcb" stroke-width="5"/>
      <path id="Path_39" data-name="Path 39" d="M1977.557,1342.341a5.6,5.6,0,0,0-7.9.44l-12.23,13.685a7.472,7.472,0,0,1-5.561,2.485h-10.93a7.465,7.465,0,0,1-5.561-2.485l-12.23-13.685a5.594,5.594,0,0,0-8.341,7.456l17.642,19.739-7.274,22.127a4.037,4.037,0,0,0,3.835,5.3h3.355l-1.99,17.31a5.6,5.6,0,0,0,11.117,1.279l2.058-17.934a.737.737,0,0,1,.734-.655h4.237a.741.741,0,0,1,.737.655l2.058,17.934a5.594,5.594,0,1,0,11.114-1.279l-1.987-17.31h3.354a4.031,4.031,0,0,0,3.833-5.292l-7.272-22.132L1978,1350.237a5.591,5.591,0,0,0-.442-7.9Z" transform="translate(-1776.242 -1257.991)" fill="none" stroke="#accfcb" stroke-width="5"/>
      <path id="Path_40" data-name="Path 40" d="M2140.026,1209.991a13.626,13.626,0,1,0-13.626-13.628A13.627,13.627,0,0,0,2140.026,1209.991Z" transform="translate(-1969.867 -1114.218)" fill="none" stroke="#accfcb" stroke-width="5"/>
      <path id="Path_41" data-name="Path 41" d="M1104.622,448.561c4.455-7.985,7.92-6.081,9.728-3.951a16.833,16.833,0,1,0,5.3-3.622c-3.224-4.892-14.168-19.373-21.89-3.615-3.891,7.935-8.722,10.477-11.766,11.383a1.212,1.212,0,0,0-.221,2.215c4.734,2.666,13.77,6.7,18.853-2.409Z" transform="translate(-1023.425 -430.219)" fill="none" stroke="#accfcb" stroke-width="5"/>
      <path id="Path_42" data-name="Path 42" d="M1010.022,989.747l.439-21.424h30.882a7.212,7.212,0,0,0,0-14.423H947a7.212,7.212,0,1,0,0,14.423h30.882l.439,21.424-15.793,26.174a4.521,4.521,0,0,0,3.872,6.857h9.126l-6.5,36.934a8.056,8.056,0,0,0,6.541,9.332,8.147,8.147,0,0,0,1.406.124,8.059,8.059,0,0,0,7.926-6.665l6.991-39.725h4.563l6.991,39.725a8.058,8.058,0,1,0,15.872-2.792l-6.5-36.934h9.126a4.522,4.522,0,0,0,3.872-6.857Z" transform="translate(-891.305 -906.215)" fill="none" stroke="#accfcb" stroke-width="5"/>
    </g>
  </g>
</svg>