
<svg xmlns="http://www.w3.org/2000/svg" xmlns:xlink="http://www.w3.org/1999/xlink" id="Group_372" data-name="Group 372" viewBox="-2.5 -2.5 170 170">

  <defs>
    <clipPath id="clip-path">
      <rect id="Rectangle_772" data-name="Rectangle 772" width="165" height="165" fill="none" stroke="#f7848a" stroke-width="5"/>
    </clipPath>
  </defs>
  <g id="Group_371" data-name="Group 371" clip-path="url(#clip-path)">
    <path id="Path_43" data-name="Path 43" d="M102.853,165.379H71.443a12.742,12.742,0,1,0-16.82,0H35.02" transform="translate(-20.263 -82.79)" fill="none" stroke="#accfcb" stroke-linecap="round" stroke-linejoin="round" stroke-width="5"/>
    <path id="Path_44" data-name="Path 44" d="M7,74.733V19.742A12.742,12.742,0,0,1,19.742,7h66.9V38.41a12.752,12.752,0,1,1,0,16.82" transform="translate(-4.05 -4.05)" fill="none" stroke="#accfcb" stroke-linecap="round" stroke-linejoin="round" stroke-width="5"/>
    <line id="Line_4" data-name="Line 4" x1="11.807" transform="translate(2.949 82.589)" fill="none" stroke="#accfcb" stroke-linecap="round" stroke-linejoin="round" stroke-width="5"/>
    <line id="Line_5" data-name="Line 5" x2="16.872" transform="translate(94.388 82.589)" fill="none" stroke="#accfcb" stroke-linecap="round" stroke-linejoin="round" stroke-width="5"/>
    <line id="Line_6" data-name="Line 6" y1="28.67" transform="translate(82.589 82.589)" fill="none" stroke="#accfcb" stroke-linecap="round" stroke-linejoin="round" stroke-width="5"/>
    <path id="Path_45" data-name="Path 45" d="M275.64,224v55.1A12.742,12.742,0,0,1,262.9,291.841H196v-28.67" transform="translate(-113.411 -129.612)" fill="none" stroke="#accfcb" stroke-linecap="round" stroke-linejoin="round" stroke-width="5"/>
    <line id="Line_7" data-name="Line 7" x2="28.67" transform="translate(133.559 82.589)" fill="none" stroke="#accfcb" stroke-linecap="round" stroke-linejoin="round" stroke-width="5"/>
    <line id="Line_8" data-name="Line 8" y2="28.67" transform="translate(82.589 2.95)" fill="none" stroke="#accfcb" stroke-linecap="round" stroke-linejoin="round" stroke-width="5"/>
    <path id="Path_46" data-name="Path 46" d="M291.955,86.64v-66.9A12.742,12.742,0,0,0,279.212,7H224.2" transform="translate(-129.725 -4.05)" fill="none" stroke="#accfcb" stroke-linecap="round" stroke-linejoin="round" stroke-width="5"/>
    <path id="Path_47" data-name="Path 47" d="M224,196h19.674a12.743,12.743,0,1,0,16.7,0h31.472" transform="translate(-129.612 -113.411)" fill="none" stroke="#accfcb" stroke-linecap="round" stroke-linejoin="round" stroke-width="5"/>
    <line id="Line_9" data-name="Line 9" y2="19.612" transform="translate(82.589 51.18)" fill="none" stroke="#accfcb" stroke-linecap="round" stroke-linejoin="round" stroke-width="5"/>
    <line id="Line_10" data-name="Line 10" x1="28.67" transform="translate(53.919 82.589)" fill="none" stroke="#accfcb" stroke-linecap="round" stroke-linejoin="round" stroke-width="5"/>
    <path id="Path_48" data-name="Path 48" d="M196,275.64V244.168a12.743,12.743,0,1,0,0-16.7V196" transform="translate(-113.411 -113.411)" fill="none" stroke="#accfcb" stroke-linecap="round" stroke-linejoin="round" stroke-width="5"/>
    <path id="Path_49" data-name="Path 49" d="M7,196v66.9A12.742,12.742,0,0,0,19.742,275.64h55.1" transform="translate(-4.05 -113.411)" fill="none" stroke="#accfcb" stroke-linecap="round" stroke-linejoin="round" stroke-width="5"/>
    <line id="Line_11" data-name="Line 11" x1="16.864" transform="translate(14.756 82.589)" fill="none" stroke="#accfcb" stroke-linecap="round" stroke-linejoin="round" stroke-width="5"/>
  </g>
</svg>