<svg xmlns="http://www.w3.org/2000/svg" xmlns:xlink="http://www.w3.org/1999/xlink" id="Group_376" data-name="Group 376" viewBox="0 0 200.14 139.5">
  <defs>
    <clipPath id="clip-path">
      <rect id="Rectangle_774" data-name="Rectangle 774" width="200.141" height="139.5" fill="#accfcb"/>
    </clipPath>
  </defs>
  <g id="Group_375" data-name="Group 375" clip-path="url(#clip-path)">
    <path id="Path_87" data-name="Path 87" d="M200.141,60.01a60.01,60.01,0,1,0-120.02,0V73.364a33.5,33.5,0,0,1-29.509,33.21v-5.018L67.481,84.687a3.958,3.958,0,0,0-5.6-5.6L50.612,90.364v-17a3.956,3.956,0,1,0-7.913,0v17L31.428,79.091a3.958,3.958,0,0,0-5.6,5.6L42.7,101.556v5.018A33.454,33.454,0,1,1,64.616,45.143a76.3,76.3,0,0,1,3.811-13.054A46.655,46.655,0,1,0,42.7,119.84v15.7a3.956,3.956,0,1,0,7.913,0v-15.7a46.71,46.71,0,0,0,42.7-46.476V60.01a46.82,46.82,0,1,1,51.532,46.582V97.365L167.5,74.708a4.71,4.71,0,0,0-6.661-6.661L144.844,84.04V60.008a4.711,4.711,0,1,0-9.422,0V84.04L119.427,68.046a4.71,4.71,0,0,0-6.661,6.661l22.656,22.657v9.222A47.211,47.211,0,0,1,107.107,93.14a63.307,63.307,0,0,1-5.729,12.61,60.393,60.393,0,0,0,34.043,14.071v14.969a4.711,4.711,0,0,0,9.422,0V119.818a60.077,60.077,0,0,0,55.3-59.808" fill="#accfcb"/>
  </g>
</svg>